<svg id="Capa_1" data-name="Capa 1" xmlns="http://www.w3.org/2000/svg" xmlns:xlink="http://www.w3.org/1999/xlink" viewBox="0 0 142 142"><defs><style>.cls-1{fill:url(#linear-gradient);}</style><linearGradient id="linear-gradient" y1="71" x2="142" y2="71" gradientUnits="userSpaceOnUse"><stop offset="0" stop-color="#f07e0a"/><stop offset="0.15" stop-color="#f18610"/><stop offset="1" stop-color="#f9b233"/></linearGradient></defs><path class="cls-1" d="M141.89,35.9s.11.05.11.07V71c0,33.19-18.08,50.86-36.14,60.27,1.94-4.51,2.48-13.22,2.48-13.22a28.91,28.91,0,0,1-10,1.15,60.43,60.43,0,0,0,16.25-11.76c.6-.59,1.17-1.22,1.73-1.87,4-3.58,8.52-9.82,11-13.49a41.81,41.81,0,1,0-74-26.84A40.54,40.54,0,0,0,64,93h0a1,1,0,0,0,.16.3c.6.66,1.22,1.37,1.86,2,0,0,10.65,9.5,23.59,7.84,20.6-2.65,21.92-15.54,21.92-15.54S110,93.76,96.25,96.11s-22.47-7.89-22.47-7.89c-.46-.49-.92-.78-1.36-1.3-.06-.06-.1,0-.11.07a34.65,34.65,0,0,1-7.8-21.92c0-18,13.7-32.64,30.6-32.64S125.7,47,125.7,64.93A33.41,33.41,0,0,1,117,87.67l-.27.13,0,.18-.48.5c-1,1.11-2.27,2.64-3.56,4.33-6.23,6.12-18.91,15.5-39.07,16.86h0c-1.43,8.47,1.55,13.86,1.55,13.86,5.11,6.69,23.48,8.39,28.78,8.75-.78.38-1.55.74-2.32,1.09C94.66,134.24,83,130.6,83,130.6s-.83,5.54,3.51,8.17C74.66,142,66.82,142,71,142H0V71S0,0,71,0H83.13C76.34,6,67.27,13.74,58.19,21.61l-6.77,5.83c-2.3,2-4.48,3.84-6.64,5.55-4.33,3.46-8.61,6.46-12.34,8.92A139.27,139.27,0,0,1,19.58,49.5a137.69,137.69,0,0,0,13.74-6.07c4-2,8.69-4.52,13.52-7.53,2.44-1.51,4.88-3.13,7.26-4.74l7.42-5L89.87,6.92a2.73,2.73,0,0,1,.42-.22,7.81,7.81,0,0,1,9,.5l27.94,19,7.43,5C137,32.77,139.45,34.39,141.89,35.9ZM105.59,0c6.79,6,15.87,13.74,24.95,21.61l6.76,5.83a36.61,36.61,0,0,0,4.7,4V0Zm-32,109.69,0,0,0,0Z"/></svg>