<?xml version="1.0" encoding="utf-8"?>
<!-- Generator: Adobe Illustrator 25.2.1, SVG Export Plug-In . SVG Version: 6.00 Build 0)  -->
<svg version="1.1" id="Capa_1" xmlns="http://www.w3.org/2000/svg" xmlns:xlink="http://www.w3.org/1999/xlink" x="0px" y="0px"
	 viewBox="0 0 100 100" style="enable-background:new 0 0 100 100;" xml:space="preserve">
<style type="text/css">
	.st0{fill:#B3B3B3;stroke:#B3B3B3;stroke-width:2;stroke-miterlimit:10;}
	.st1{fill:#FFFFFF;}
</style>
<path class="st0" d="M22.36,67.82h57.5c9.84,0,17.82-7.98,17.82-17.82v0c0-9.84-7.98-17.82-17.82-17.82h-57.5
	c-9.84,0-17.82,7.98-17.82,17.82v0C4.54,59.84,12.52,67.82,22.36,67.82z"/>
<g>
	<path class="st1" d="M22.14,67.75c-9.77,0-17.71-7.95-17.71-17.71s7.95-17.71,17.71-17.71s17.71,7.95,17.71,17.71
		S31.91,67.75,22.14,67.75z"/>
	<path d="M22.14,33.32c9.22,0,16.71,7.5,16.71,16.71s-7.5,16.71-16.71,16.71S5.43,59.25,5.43,50.03S12.92,33.32,22.14,33.32
		 M22.14,31.32c-10.33,0-18.71,8.38-18.71,18.71s8.38,18.71,18.71,18.71s18.71-8.38,18.71-18.71S32.47,31.32,22.14,31.32
		L22.14,31.32z"/>
</g>
</svg>
