<?xml version="1.0" encoding="utf-8"?>
<!-- Generator: Adobe Illustrator 25.2.1, SVG Export Plug-In . SVG Version: 6.00 Build 0)  -->
<svg version="1.1" id="Capa_2" xmlns="http://www.w3.org/2000/svg" xmlns:xlink="http://www.w3.org/1999/xlink" x="0px" y="0px"
	 viewBox="0 0 100 100" style="enable-background:new 0 0 100 100;" xml:space="preserve">
<style type="text/css">
	.st0{fill:#FFFFFF;}
</style>
<path class="st0" d="M50,5C25.15,5,5,25.15,5,50c0,24.85,20.15,45,45,45s45-20.15,45-45C95,25.15,74.85,5,50,5z M50.37,72.28
	c-3.29,0-5.73-2.6-5.73-5.96c0-3.39,2.44-5.99,5.73-5.99c3.3,0,5.74,2.6,5.74,5.99C56.11,69.68,53.67,72.28,50.37,72.28z
	 M54.53,56.56h-8.3c-1.32-8.85,8.15-12.49,8.15-17.38c0-2.64-1.79-4.07-4.34-4.07c-2.38,0-4.12,1.23-5.89,2.99l-5.23-4.78
	c3.04-3.46,7.28-5.87,12.31-5.87c6.95,0,12.25,3.43,12.25,11.07C63.48,46.48,53.77,48.92,54.53,56.56z"/>
</svg>
