<?xml version="1.0" encoding="UTF-8"?>
<!DOCTYPE svg PUBLIC "-//W3C//DTD SVG 1.1//EN" "http://www.w3.org/Graphics/SVG/1.1/DTD/svg11.dtd">
<!-- Creator: CorelDRAW X8 -->
<svg xmlns="http://www.w3.org/2000/svg" xml:space="preserve" width="43mm" height="43mm" version="1.1" style="shape-rendering:geometricPrecision; text-rendering:geometricPrecision; image-rendering:optimizeQuality; fill-rule:evenodd; clip-rule:evenodd"
viewBox="0 0 4300 4300"
 xmlns:xlink="http://www.w3.org/1999/xlink">
 <defs>
  <style type="text/css">
   <![CDATA[
    .str0 {stroke:#191919;stroke-width:50;stroke-linecap:round;stroke-linejoin:round}
    .fil1 {fill:none}
    .fil5 {fill:black}
    .fil2 {fill:#191919}
    .fil0 {fill:#373435;fill-rule:nonzero}
    .fil4 {fill:black;fill-rule:nonzero}
    .fil3 {fill:black;fill-rule:nonzero}
   ]]>
  </style>
 </defs>
 <g id="Capa_x0020_1">
  <metadata id="CorelCorpID_0Corel-Layer"/>
  <g id="_1559507408">
   <g>
    <path class="fil0" d="M4225 2150l-150 0 0 0 -3 -99 -7 -98 -12 -96 -17 -95 -22 -93 -26 -91 -30 -90 -34 -87 -39 -85 -42 -83 -47 -81 -50 -78 -53 -75 -57 -73 -61 -70 -64 -67 -67 -63 -69 -61 -73 -57 -76 -54 -78 -50 -80 -46 -83 -43 -86 -38 -87 -35 -89 -30 -92 -26 -93 -21 -95 -17 -96 -13 -98 -7 -99 -3 0 -150 107 2 105 8 104 13 102 19 100 23 99 28 96 32 95 38 92 41 89 46 87 50 84 54 81 58 79 61 75 66 72 68 69 72 65 76 62 78 58 81 54 85 50 87 45 89 42 92 37 94 33 97 28 98 23 101 18 102 13 104 8 105 3 107 0 0zm-2075 2075l0 -150 0 0 99 -3 98 -7 96 -13 95 -17 93 -21 92 -26 89 -30 87 -35 86 -38 83 -43 80 -46 78 -50 76 -54 73 -57 69 -61 67 -63 64 -67 61 -70 57 -73 53 -75 50 -78 47 -81 42 -83 39 -85 34 -87 30 -90 26 -91 22 -93 17 -95 12 -96 7 -98 3 -99 150 0 -3 107 -8 105 -13 104 -18 102 -23 101 -28 98 -33 97 -37 94 -42 92 -45 89 -50 87 -54 85 -58 81 -62 78 -65 76 -69 72 -72 68 -75 66 -79 61 -81 58 -84 54 -87 50 -89 46 -92 41 -95 38 -96 32 -99 28 -100 23 -102 19 -104 13 -105 8 -107 2 0 0zm-2075 -2075l150 0 0 0 3 99 7 98 12 96 17 95 22 93 26 91 30 90 34 87 39 85 42 83 47 81 50 78 53 75 57 73 61 70 64 67 67 63 69 61 73 57 76 54 78 50 80 46 83 43 86 38 87 35 89 30 92 26 93 21 95 17 96 13 98 7 99 3 0 150 -107 -2 -105 -8 -104 -13 -102 -19 -100 -23 -99 -28 -96 -32 -95 -38 -92 -41 -89 -46 -87 -50 -84 -54 -81 -58 -79 -61 -75 -66 -72 -68 -69 -72 -65 -76 -62 -78 -58 -81 -54 -85 -50 -87 -45 -89 -42 -92 -37 -94 -33 -97 -28 -98 -23 -101 -18 -102 -13 -104 -8 -105 -3 -107 0 0zm2075 -2075l0 150 0 0 -99 3 -98 7 -96 13 -95 17 -93 21 -92 26 -89 30 -87 35 -86 38 -83 43 -80 46 -78 50 -76 54 -73 57 -69 61 -67 63 -64 67 -61 70 -57 73 -53 75 -50 78 -47 81 -42 83 -39 85 -34 87 -30 90 -26 91 -22 93 -17 95 -12 96 -7 98 -3 99 -150 0 3 -107 8 -105 13 -104 18 -102 23 -101 28 -98 33 -97 37 -94 42 -92 45 -89 50 -87 54 -85 58 -81 62 -78 65 -76 69 -72 72 -68 75 -66 79 -61 81 -58 84 -54 87 -50 89 -46 92 -41 95 -38 96 -32 99 -28 100 -23 102 -19 104 -13 105 -8 107 -2 0 0z"/>
   </g>
   <g>
    <path class="fil1 str0" d="M3614 1491l281 281 0 55 -368 0 -6 0 -78 0 0 309 59 0c12,0 23,11 23,24l0 626c0,13 -11,23 -23,23l-59 0 -177 0 -58 0c-13,0 -23,-10 -23,-23l0 -626c0,-13 10,-24 23,-24l58 0 0 -309 -314 0c-22,0 -39,-17 -39,-38l0 -260c0,-21 17,-38 39,-38l569 0 6 0 87 0z"/>
    <path id="1" class="fil2" d="M3614 1491l281 281 0 55 -368 0 -6 0 -78 0 0 309 59 0c12,0 23,11 23,24l0 626c0,13 -11,23 -23,23l-59 0 -177 0 -58 0c-13,0 -23,-10 -23,-23l0 -626c0,-13 10,-24 23,-24l58 0 0 -309 -314 0c-22,0 -39,-17 -39,-38l0 -260c0,-21 17,-38 39,-38l569 0 6 0 87 0z"/>
   </g>
   <g>
    <path class="fil3" d="M2208 2574c-28,0 -50,-22 -50,-49 0,-27 22,-49 50,-49l0 98zm499 0l-499 0 0 -98 499 0 0 98zm0 -98c27,0 50,22 50,49 0,27 -23,49 -50,49l0 -98z"/>
   </g>
   <g>
    <path class="fil3" d="M2506 2774c0,28 -22,50 -49,50 -27,0 -49,-22 -49,-50l98 0zm0 -498l0 498 -98 0 0 -498 98 0zm-98 0c0,-28 22,-50 49,-50 27,0 49,22 49,50l-98 0z"/>
   </g>
   <g>
    <path class="fil4" d="M2107 1667l-651 650 -53 -53 651 -650 0 0 53 53zm122 -53l-53 53 0 0 -2 -2 -2 -2 -2 -1 -2 -2 -2 -1 -2 -1 -2 -1 -2 -1 -2 -1 -3 0 -2 -1 -2 -1 -3 0 -2 0 -2 0 -3 0 -2 0 -2 0 -3 0 -2 0 -2 1 -3 1 -2 0 -2 1 -2 1 -3 1 -2 1 -2 1 -2 2 -2 1 -1 2 -2 2 -53 -53 4 -5 5 -4 5 -4 5 -3 5 -3 6 -3 5 -3 6 -2 5 -3 6 -1 6 -2 6 -1 6 -1 5 -1 6 0 6 0 6 0 6 0 6 1 6 1 6 1 6 2 5 1 6 3 5 2 6 3 5 3 6 3 5 3 5 4 4 4 5 5 0 0zm10 116l-63 -63 53 -53 63 63 -53 53 0 0zm53 122l-53 -53 0 0 2 -2 1 -2 2 -2 1 -2 2 -2 1 -2 1 -2 1 -2 1 -2 0 -3 1 -2 0 -2 1 -2 0 -3 0 -2 0 -3 0 -2 0 -2 0 -3 -1 -2 0 -2 -1 -3 0 -2 -1 -2 -1 -2 -1 -2 -1 -2 -2 -3 -1 -1 -2 -2 -1 -2 -2 -2 53 -53 4 4 5 5 3 5 4 5 3 5 3 6 3 5 2 6 2 6 2 5 2 6 1 6 1 6 1 6 0 5 0 6 0 6 0 6 -1 6 -1 6 -1 6 -2 6 -2 5 -2 6 -2 6 -3 5 -3 5 -3 6 -4 5 -3 5 -5 4 -4 5 0 0zm-704 598l651 -651 53 53 -651 651 -16 9 -37 -62zm53 53c-14,14 -38,14 -53,0 -15,-15 -15,-39 0,-53l53 53zm-302 17l265 -80 21 72 -265 80 -46 -47 25 -25zm21 72c-19,6 -40,-5 -46,-25 -6,-20 5,-41 25,-47l21 72zm105 -290l-80 265 -71 -22 79 -265 10 -16 62 38zm-72 -22c6,-20 27,-31 47,-25 20,6 31,27 25,47l-72 -22z"/>
   </g>
   <g>
    <path class="fil4" d="M1983 1738c-13,-13 -13,-32 0,-45 12,-12 32,-12 44,0l-44 45zm185 185l-185 -185 44 -45 185 186 -44 44zm44 -44c12,12 12,32 0,44 -12,12 -32,12 -44,0l44 -44z"/>
   </g>
   <g>
    <path class="fil4" d="M1915 1805c-12,-12 -12,-32 0,-44 12,-12 32,-12 44,0l-44 44zm186 186l-186 -186 44 -44 186 185 -44 45zm44 -45c12,12 12,32 0,45 -12,12 -32,12 -44,0l44 -45z"/>
   </g>
   <g>
    <path class="fil4" d="M1407 2313c-12,-12 -12,-32 0,-44 12,-12 32,-12 44,0l-44 44zm186 185l-186 -185 44 -44 186 185 -44 44zm44 -44c12,12 12,32 0,44 -12,12 -32,12 -44,0l44 -44z"/>
   </g>
   <g>
    <path class="fil4" d="M1361 2468c-13,-12 -13,-32 0,-44 12,-13 32,-13 44,0l-44 44zm77 77l-77 -77 44 -44 77 77 -44 44zm44 -44c12,12 12,32 0,44 -12,12 -32,12 -44,0l44 -44z"/>
   </g>
   <g>
    <path class="fil4" d="M1537 2657c0,-21 16,-37 37,-37 21,0 38,16 38,37l-75 0zm0 74l0 -74 75 0 0 74 0 0 -75 0zm-28 103l0 -75 0 0 2 0 1 0 1 0 2 -1 1 0 1 0 2 -1 1 0 1 -1 1 0 1 -1 1 -1 2 -1 1 0 1 -1 1 -1 1 -1 0 -1 1 -1 1 -1 1 -1 0 -2 1 -1 1 -1 0 -1 0 -1 1 -2 0 -1 0 -1 1 -2 0 -1 0 -2 75 0 0 6 -1 5 0 5 -1 5 -2 5 -1 5 -2 5 -1 4 -2 5 -3 4 -2 5 -3 4 -3 4 -3 4 -3 3 -3 4 -4 3 -4 3 -3 3 -4 3 -5 3 -4 2 -4 3 -5 2 -5 2 -4 1 -5 2 -5 1 -5 1 -5 0 -6 1 -5 0 0 0zm-940 -75l940 0 0 75 -940 0 0 0 0 -75zm-102 -28l75 0 0 0 0 2 0 1 0 2 0 1 1 1 0 2 0 1 1 1 0 1 1 1 1 2 0 1 1 1 1 1 1 1 1 1 1 1 1 1 1 0 1 1 1 1 1 1 1 0 2 1 1 0 1 1 1 0 2 0 1 1 1 0 2 0 1 0 0 75 -5 0 -5 -1 -5 0 -5 -1 -5 -1 -5 -2 -5 -1 -5 -2 -4 -2 -5 -3 -4 -2 -4 -3 -4 -3 -4 -3 -4 -3 -3 -3 -4 -4 -3 -3 -3 -4 -3 -4 -2 -4 -3 -5 -2 -4 -2 -5 -2 -4 -2 -5 -1 -5 -1 -5 -1 -5 -1 -5 0 -5 0 -6 0 0zm75 -984l0 984 -75 0 0 -984 0 0 75 0zm27 -102l0 75 0 0 -1 0 -2 0 -1 0 -1 0 -2 0 -1 1 -1 0 -1 1 -2 0 -1 1 -1 1 -1 0 -1 1 -1 1 -1 1 -1 1 -1 1 -1 1 -1 1 -1 1 0 1 -1 1 -1 1 0 1 -1 2 0 1 0 1 -1 2 0 1 0 1 0 2 0 1 -75 0 0 -5 0 -5 1 -6 1 -5 1 -5 1 -4 2 -5 2 -5 2 -4 2 -5 3 -4 2 -4 3 -4 3 -4 3 -4 4 -3 3 -4 4 -3 4 -3 4 -3 4 -3 4 -2 5 -2 4 -2 5 -2 5 -2 5 -1 5 -1 5 -1 5 -1 5 0 5 0 0 0zm348 75l-348 0 0 -75 348 0 38 37 -38 38zm0 -75c21,0 38,16 38,37 0,21 -17,38 -38,38l0 -75zm38 -1l0 38 -75 0 0 -38 0 0 75 0zm-75 0c0,-21 17,-37 37,-37 21,0 38,16 38,37l-75 0zm159 -159l0 75 0 0 -4 0 -4 0 -5 1 -4 0 -4 1 -4 1 -4 2 -4 1 -3 2 -4 2 -4 2 -3 2 -3 2 -3 3 -4 3 -3 2 -2 3 -3 3 -2 4 -3 3 -2 3 -2 4 -2 4 -2 3 -1 4 -1 4 -2 4 -1 4 0 4 -1 4 0 5 0 4 -75 0 0 -8 1 -8 1 -8 1 -8 2 -8 2 -7 2 -8 3 -7 3 -7 4 -7 4 -7 4 -6 4 -6 5 -6 5 -6 5 -6 6 -5 6 -5 6 -5 6 -4 6 -4 7 -4 7 -4 7 -3 7 -3 8 -2 7 -2 8 -2 8 -1 8 -1 8 -1 8 0 0 0zm160 159l-75 0 0 0 0 -4 -1 -5 0 -4 -1 -4 -1 -4 -1 -4 -1 -4 -2 -4 -2 -3 -1 -4 -2 -4 -3 -3 -2 -3 -3 -4 -2 -3 -3 -3 -3 -2 -3 -3 -3 -3 -4 -2 -3 -2 -4 -2 -3 -2 -4 -2 -4 -1 -4 -2 -4 -1 -4 -1 -4 0 -4 -1 -4 0 -5 0 0 -75 8 0 8 1 8 1 8 1 8 2 8 2 7 2 7 3 7 3 7 4 7 4 6 4 7 4 6 5 5 5 6 5 5 6 5 6 5 6 4 6 5 6 3 7 4 7 3 7 3 7 3 8 2 7 2 8 1 8 1 8 1 8 0 8 0 0zm0 0c0,21 -17,38 -38,38 -20,0 -37,-17 -37,-38l75 0zm-75 38l0 -38 75 0 0 38 -38 38 -37 -38zm75 0c0,21 -17,38 -38,38 -20,0 -37,-17 -37,-38l75 0zm310 38l-348 0 0 -75 348 0 0 0 0 75zm103 27l-75 0 0 0 0 -1 0 -2 -1 -1 0 -1 0 -2 -1 -1 0 -1 0 -1 -1 -2 -1 -1 0 -1 -1 -1 -1 -1 -1 -1 -1 -1 0 -1 -1 -1 -1 -1 -1 -1 -2 -1 -1 0 -1 -1 -1 -1 -1 0 -1 -1 -2 0 -1 -1 -1 0 -2 0 -1 0 -1 0 -2 0 0 -75 5 0 6 0 5 1 5 1 5 1 5 1 4 2 5 2 5 2 4 2 4 2 4 3 5 3 3 3 4 3 4 4 3 3 3 4 3 4 3 4 3 4 2 4 3 5 2 4 1 5 2 5 1 4 2 5 1 5 0 6 1 5 0 5 0 0zm-75 264l0 -264 75 0 0 264 -75 0zm75 0c0,20 -17,37 -38,37 -21,0 -37,-17 -37,-37l75 0z"/>
   </g>
   <g>
    <path class="fil4" d="M727 1682c0,-21 17,-37 37,-37 21,0 38,16 38,37l-75 0zm0 202l0 -202 75 0 0 202 0 0 -75 0zm75 0c0,21 -17,38 -38,38 -20,0 -37,-17 -37,-38l75 0zm-22 -22l0 75 0 0 -3 0 -3 0 -3 -1 -3 0 -2 -1 -3 -1 -3 -1 -2 -1 -2 -1 -3 -1 -2 -2 -2 -1 -2 -1 -2 -2 -2 -2 -1 -2 -2 -1 -2 -2 -1 -2 -1 -2 -2 -2 -1 -2 -1 -2 -1 -3 -1 -2 -1 -2 0 -3 -1 -2 -1 -3 0 -3 0 -2 0 -3 75 0 0 -1 0 -1 0 -2 -1 -1 0 -1 0 -1 -1 -1 0 -1 0 -1 -1 -1 0 -1 -1 0 0 -1 -1 -1 0 0 -1 -1 0 -1 -1 0 -1 -1 -1 0 -1 -1 0 -1 -1 0 -2 -1 0 0 -2 -1 -1 0 -1 0 -1 0 -1 -1 -2 0 -1 0 0 0zm0 0c21,0 38,17 38,38 0,20 -17,37 -38,37l0 -75zm518 75l-518 0 0 -75 518 0 0 0 0 75zm0 -75c21,0 38,17 38,38 0,20 -17,37 -38,37l0 -75zm-21 22l75 0 0 0 0 3 -1 3 0 3 -1 3 0 2 -1 3 -1 2 -1 3 -1 2 -2 2 -1 2 -1 2 -2 2 -1 2 -2 2 -1 1 -2 2 -2 1 -2 2 -2 1 -1 2 -3 1 -2 1 -2 1 -2 1 -3 1 -2 1 -3 1 -3 0 -2 1 -3 0 -4 0 0 -75 -1 0 -2 0 -1 1 -1 0 -1 0 -2 1 -1 0 -1 0 -1 1 0 0 -1 1 -1 0 0 1 -1 0 -1 1 0 0 -1 1 0 0 -1 1 0 1 -1 1 0 0 -1 1 0 1 -1 1 0 1 0 1 -1 1 0 2 0 1 0 1 0 2 0 0zm0 0c0,-21 16,-37 37,-37 21,0 38,16 38,37l-75 0zm75 -202l0 202 -75 0 0 -202 75 0zm-75 0c0,-21 16,-37 37,-37 21,0 38,16 38,37l-75 0z"/>
   </g>
   <g>
    <path class="fil4" d="M694 2051l-18 -58 8 -2 18 57 -4 5 -4 -2zm8 -3c0,2 -1,5 -3,5 -2,1 -4,0 -5,-2l8 -3zm53 5l-57 0 0 -7 57 0 2 7 -2 0zm0 -7c2,0 4,1 4,3 0,3 -2,4 -4,4l0 -7zm-49 36l47 -36 4 7 -46 35 -6 -2 1 -4zm5 6c-2,1 -4,1 -5,-1 -2,-2 -1,-4 0,-5l5 6zm12 55l-18 -57 7 -2 18 57 -6 4 -1 -2zm7 -2c1,2 0,4 -2,5 -2,0 -5,-1 -5,-3l7 -2zm-47 -38l46 36 -5 6 -46 -35 0 -7 5 0zm-5 7c-2,-2 -2,-4 -1,-6 1,-2 4,-2 6,-1l-5 7zm-46 29l46 -36 5 7 -47 35 -6 -4 2 -2zm4 6c-1,1 -4,1 -5,-1 -1,-1 -1,-4 1,-5l4 6zm19 -59l-17 57 -8 -2 18 -57 6 -2 1 4zm-7 -2c1,-3 3,-4 5,-3 2,1 3,3 2,5l-7 -2zm-40 -38l46 36 -5 6 -46 -35 2 -7 3 0zm-5 7c-2,-2 -2,-4 -1,-6 2,-2 4,-2 6,-1l-5 7zm60 0l-58 0 0 -7 58 0 3 5 -3 2zm0 -7c2,0 4,1 4,4 0,2 -2,3 -4,3l0 -7zm21 -53l-18 58 -7 -3 17 -57 8 0 0 2zm-8 -2c1,-2 3,-3 5,-2 2,0 4,2 3,4l-8 -2z"/>
    <polygon id="1" class="fil5" points="680,1992 698,2050 755,2049 709,2085 726,2142 680,2106 634,2142 652,2085 605,2049 663,2050 "/>
   </g>
   <g>
    <path class="fil4" d="M694 2285l-18 -57 8 -2 18 57 -4 5 -4 -3zm8 -2c0,2 -1,4 -3,5 -2,0 -4,-1 -5,-3l8 -2zm53 5l-57 0 0 -8 57 0 2 7 -2 1zm0 -8c2,0 4,2 4,4 0,2 -2,4 -4,4l0 -8zm-49 36l47 -35 4 6 -46 35 -6 -2 1 -4zm5 6c-2,2 -4,1 -5,0 -2,-2 -1,-5 0,-6l5 6zm12 56l-18 -58 7 -2 18 57 -6 5 -1 -2zm7 -3c1,2 0,5 -2,5 -2,1 -5,0 -5,-2l7 -3zm-47 -37l46 35 -5 7 -46 -36 0 -6 5 0zm-5 6c-2,-1 -2,-4 -1,-5 1,-2 4,-2 6,-1l-5 6zm-46 29l46 -35 5 6 -47 36 -6 -5 2 -2zm4 7c-1,1 -4,1 -5,-1 -1,-2 -1,-4 1,-6l4 7zm19 -60l-17 58 -8 -3 18 -57 6 -2 1 4zm-7 -2c1,-2 3,-3 5,-3 2,1 3,3 2,5l-7 -2zm-40 -37l46 35 -5 6 -46 -35 2 -7 3 1zm-5 6c-2,-1 -2,-4 -1,-5 2,-2 4,-2 6,-1l-5 6zm60 1l-58 0 0 -8 58 0 3 5 -3 3zm0 -8c2,0 4,2 4,4 0,2 -2,4 -4,4l0 -8zm21 -52l-18 57 -7 -2 17 -57 8 0 0 2zm-8 -2c1,-2 3,-4 5,-3 2,1 4,3 3,5l-8 -2z"/>
    <polygon id="1" class="fil5" points="680,2227 698,2284 755,2284 709,2319 726,2376 680,2341 634,2376 652,2319 605,2284 663,2284 "/>
   </g>
   <g>
    <path class="fil4" d="M694 2559l-18 -57 8 -3 18 58 -4 5 -4 -3zm8 -2c0,2 -1,4 -3,4 -2,1 -4,0 -5,-2l8 -2zm53 5l-57 0 0 -8 57 0 2 7 -2 1zm0 -8c2,0 4,1 4,4 0,2 -2,4 -4,4l0 -8zm-49 36l47 -36 4 7 -46 35 -6 -2 1 -4zm5 6c-2,1 -4,1 -5,-1 -2,-1 -1,-4 0,-5l5 6zm12 55l-18 -57 7 -2 18 57 -6 4 -1 -2zm7 -2c1,2 0,4 -2,5 -2,0 -5,-1 -5,-3l7 -2zm-47 -38l46 36 -5 6 -46 -35 0 -7 5 0zm-5 7c-2,-2 -2,-4 -1,-6 1,-2 4,-2 6,-1l-5 7zm-46 29l46 -36 5 7 -47 35 -6 -4 2 -2zm4 6c-1,1 -4,1 -5,-1 -1,-1 -1,-4 1,-5l4 6zm19 -59l-17 57 -8 -2 18 -57 6 -2 1 4zm-7 -2c1,-2 3,-4 5,-3 2,1 3,3 2,5l-7 -2zm-40 -38l46 36 -5 6 -46 -35 2 -7 3 0zm-5 7c-2,-2 -2,-4 -1,-6 2,-2 4,-2 6,-1l-5 7zm60 1l-58 0 0 -8 58 0 3 5 -3 3zm0 -8c2,0 4,2 4,4 0,2 -2,4 -4,4l0 -8zm21 -52l-18 57 -7 -2 17 -58 8 0 0 3zm-8 -3c1,-2 3,-3 5,-2 2,0 4,3 3,5l-8 -3z"/>
    <polygon id="1" class="fil5" points="680,2500 698,2558 755,2558 709,2593 726,2650 680,2615 634,2650 652,2593 605,2558 663,2558 "/>
   </g>
   <g>
    <path class="fil4" d="M840 2077c-11,0 -20,-8 -20,-19 0,-11 9,-20 20,-20l0 39zm381 0l-381 0 0 -39 381 0 0 39zm0 -39c11,0 19,9 19,20 0,11 -8,19 -19,19l0 -39z"/>
   </g>
   <g>
    <path class="fil4" d="M840 2155c-11,0 -20,-8 -20,-19 0,-11 9,-20 20,-20l0 39zm381 0l-381 0 0 -39 381 0 0 39zm0 -39c11,0 19,9 19,20 0,11 -8,19 -19,19l0 -39z"/>
   </g>
   <g>
    <path class="fil4" d="M840 2312c-11,0 -20,-9 -20,-20 0,-10 9,-19 20,-19l0 39zm381 0l-381 0 0 -39 381 0 0 39zm0 -39c11,0 19,9 19,19 0,11 -8,20 -19,20l0 -39z"/>
   </g>
   <g>
    <path class="fil4" d="M840 2390c-11,0 -20,-9 -20,-20 0,-10 9,-19 20,-19l0 39zm381 0l-381 0 0 -39 381 0 0 39zm0 -39c11,0 19,9 19,19 0,11 -8,20 -19,20l0 -39z"/>
   </g>
   <g>
    <path class="fil4" d="M840 2585c-11,0 -20,-8 -20,-19 0,-11 9,-20 20,-20l0 39zm381 0l-381 0 0 -39 381 0 0 39zm0 -39c11,0 19,9 19,20 0,11 -8,19 -19,19l0 -39z"/>
   </g>
   <g>
    <path class="fil4" d="M840 2664c-11,0 -20,-9 -20,-20 0,-11 9,-20 20,-20l0 40zm166 0l-166 0 0 -40 166 0 0 40zm0 -40c11,0 20,9 20,20 0,11 -9,20 -20,20l0 -40z"/>
   </g>
  </g>
 </g>
</svg>
