<?xml version="1.0" encoding="utf-8"?>
<!-- Generator: Adobe Illustrator 22.0.0, SVG Export Plug-In . SVG Version: 6.00 Build 0)  -->
<svg version="1.1" id="Capa_1" xmlns="http://www.w3.org/2000/svg" xmlns:xlink="http://www.w3.org/1999/xlink" x="0px" y="0px"
	 viewBox="0 0 100 100" style="enable-background:new 0 0 100 100;" xml:space="preserve">
<style type="text/css">
	.st0{fill:none;stroke:#FFFFFF;stroke-width:5;stroke-miterlimit:10;}
	.st1{fill:none;stroke:#FFFFFF;stroke-width:5;stroke-linecap:round;stroke-linejoin:round;stroke-miterlimit:10;}
</style>
<g>
	<g>
		<ellipse class="st0" cx="80.1" cy="19.1" rx="7.1" ry="7.1"/>
		<ellipse class="st0" cx="80.1" cy="19.1" rx="7.1" ry="7.1"/>
	</g>
	<g>
		<path class="st1" d="M81.3,3c-9.8-0.7-17.9,7.1-18,16.8v0c0,3.3,1.2,6.2,2.9,9.4c1.3,2.2,2.6,4.4,4.1,6.6c2.1,3.2,4.4,6.2,6.8,9.1
			l1,1.3c0.9,1.3,3.2,1.3,4.1,0l0.2-0.2c3.4-4.3,6.6-8.8,9.6-13.5c0.7-1.1,1.4-2.1,2.1-3.2c1.4-2.5,2.9-6.3,2.9-10
			C96.9,10.6,89.8,3.6,81.3,3z M80.1,12c3.9,0,7.1,3.2,7.1,7.1s-3.2,7.1-7.1,7.1S73,23,73,19.1S76.2,12,80.1,12z"/>
		<path class="st1" d="M92.1,33.2v53.6c0,1.4-1.4,2.6-3.1,2.6L61.8,97c-0.1,0-0.3,0-0.4,0c-0.1,0-0.2,0-0.4,0l-27.2-7.5
			c-0.1,0-0.1,0-0.2,0c0,0-0.1,0-0.2,0L6.2,97c-1.7,0-3.1-1.2-3.1-2.6V40.8c0-1.5,1.4-2.2,3.1-2.6l26.1-7.2c0.8-0.2,1.6-0.2,2.3,0
			c5.5,1.3,26.4,7.3,26.4,7.3c0.1,0,0.3,0,0.4,0c0.1,0,0.3,0,0.4,0l8.5-2.3c2.1,3.2,4.4,6.2,6.8,9.1l1,1.3c0.9,1.3,3.2,1.3,4.1,0
			l0.2-0.2c3.4-4.3,6.6-8.8,9.6-13.5C92.1,32.7,92.1,33,92.1,33.2z"/>
		<line class="st1" x1="33.4" y1="31.8" x2="33.5" y2="89.5"/>
		<line class="st1" x1="61.4" y1="38.1" x2="61.4" y2="97"/>
	</g>
</g>
</svg>
