<?xml version="1.0" encoding="utf-8"?>
<!-- Generator: Adobe Illustrator 16.0.3, SVG Export Plug-In . SVG Version: 6.00 Build 0)  -->
<!DOCTYPE svg PUBLIC "-//W3C//DTD SVG 1.1//EN" "http://www.w3.org/Graphics/SVG/1.1/DTD/svg11.dtd">
<svg version="1.1" id="Capa_2" xmlns="http://www.w3.org/2000/svg" xmlns:xlink="http://www.w3.org/1999/xlink" x="0px" y="0px"
	 width="566.93px" height="566.93px" viewBox="0 0 566.93 566.93" enable-background="new 0 0 566.93 566.93" xml:space="preserve">
<polygon fill="#FFFFFF" points="283.465,312.664 149.032,250.528 149.032,90.4 283.465,152.536 "/>
<polygon fill="#FFFFFF" points="283.465,312.664 417.897,250.528 417.897,90.4 283.465,152.536 "/>
<polygon fill="#FFFFFF" points="417.897,90.4 283.465,148.857 149.032,90.4 283.465,31.944 "/>
<polygon fill="#FFFFFF" points="149.032,534.986 14.6,472.851 14.6,312.723 149.032,374.858 "/>
<polygon fill="#FFFFFF" points="149.032,534.986 283.465,472.851 283.465,312.723 149.032,374.858 "/>
<polygon fill="#FFFFFF" points="283.465,312.723 149.032,371.18 14.6,312.723 149.032,254.266 "/>
<polygon fill="#FFFFFF" points="417.897,534.986 283.465,472.851 283.465,312.723 417.897,374.858 "/>
<polygon fill="#FFFFFF" points="417.897,534.986 552.33,472.851 552.33,312.723 417.897,374.858 "/>
<polygon fill="#FFFFFF" points="552.33,312.723 417.897,371.18 283.465,312.723 417.897,254.266 "/>
</svg>
