<?xml version="1.0" encoding="utf-8"?>
<!-- Generator: Adobe Illustrator 22.0.0, SVG Export Plug-In . SVG Version: 6.00 Build 0)  -->
<svg version="1.1" id="Capa_1" xmlns="http://www.w3.org/2000/svg" xmlns:xlink="http://www.w3.org/1999/xlink" x="0px" y="0px"
	 viewBox="0 0 100 100" style="enable-background:new 0 0 100 100;" xml:space="preserve">
<style type="text/css">
	.st0{fill:none;stroke:#FFFFFF;stroke-width:5;stroke-linecap:round;stroke-linejoin:round;stroke-miterlimit:10;}
</style>
<path class="st0" d="M38.1,43.4H14.1c-2.8,0-5-2.2-5-5V14.4c0-2.8,2.2-5,5-5h23.9c2.8,0,5,2.2,5,5v23.9
	C43.1,41.2,40.8,43.4,38.1,43.4z"/>
<path class="st0" d="M85.9,43.4H61.9c-2.8,0-5-2.2-5-5V14.4c0-2.8,2.2-5,5-5h23.9c2.8,0,5,2.2,5,5v23.9
	C90.9,41.2,88.6,43.4,85.9,43.4z"/>
<path class="st0" d="M38.1,90.6H14.1c-2.8,0-5-2.2-5-5V61.6c0-2.8,2.2-5,5-5h23.9c2.8,0,5,2.2,5,5v23.9
	C43.1,88.3,40.8,90.6,38.1,90.6z"/>
<path class="st0" d="M85.1,90.6H61.1c-2.8,0-5-2.2-5-5V61.6c0-2.8,2.2-5,5-5h23.9c2.8,0,5,2.2,5,5v23.9
	C90.1,88.3,87.8,90.6,85.1,90.6z"/>
</svg>
