<?xml version="1.0" encoding="utf-8"?>
<!-- Generator: Adobe Illustrator 25.2.1, SVG Export Plug-In . SVG Version: 6.00 Build 0)  -->
<svg version="1.1" id="Capa_1" xmlns="http://www.w3.org/2000/svg" xmlns:xlink="http://www.w3.org/1999/xlink" x="0px" y="0px"
	 viewBox="0 0 100 100" style="enable-background:new 0 0 100 100;" xml:space="preserve">
<style type="text/css">
	.st0{fill:none;stroke:#000000;stroke-width:6;stroke-linecap:round;stroke-linejoin:round;stroke-miterlimit:10;}
</style>
<g>
	<path class="st0" d="M61.85,20.81L41.36,41.17c-1.04,1.03-1.82,2.3-2.26,3.7l-8.4,18.37c-1.06,3.32,2.06,6.45,5.38,5.42l17.98-8.74
		c1.4-0.43,2.67-1.2,3.71-2.23l20.36-20.23"/>
	<path class="st0" d="M78.13,37.46L57.77,57.69c-1.04,1.03-2.31,1.8-3.71,2.23l-17.98,8.74c-3.32,1.03-6.44-2.1-5.38-5.42l8.4-18.37
		c0.44-1.4,1.22-2.67,2.26-3.7l20.49-20.36L74.67,8.07c1.66-1.65,4.35-1.65,6,0.01l10.44,10.51c1.65,1.66,1.64,4.34-0.02,5.99
		L78.13,37.46"/>
	<path class="st0" d="M87.98,56.81v29.36c0,3.87-3.01,7-6.72,7H14.38c-3.71,0-6.72-3.13-6.72-7V22.22c0-3.87,3.01-7,6.72-7h30.24"/>
	<path class="st0" d="M87.98,22.22"/>
	<path class="st0" d="M80.98,15.22"/>
</g>
</svg>
