<?xml version="1.0" encoding="utf-8"?>
<!-- Generator: Adobe Illustrator 16.0.3, SVG Export Plug-In . SVG Version: 6.00 Build 0)  -->
<!DOCTYPE svg PUBLIC "-//W3C//DTD SVG 1.1//EN" "http://www.w3.org/Graphics/SVG/1.1/DTD/svg11.dtd">
<svg version="1.1" id="Capa_1" xmlns="http://www.w3.org/2000/svg" xmlns:xlink="http://www.w3.org/1999/xlink" x="0px" y="0px"
	 width="566.93px" height="566.93px" viewBox="0 0 566.93 566.93" enable-background="new 0 0 566.93 566.93" xml:space="preserve">
<g>
	<g>
		<path fill="none" stroke="#FFFFFF" stroke-width="5" stroke-miterlimit="10" d="M546.123,83.452v277.399
			c0,9.354-4.082,18.254-11.338,24.774L397.984,508.31c-7.029,6.293-16.384,9.808-26.192,9.808H58.337
			c-20.75,0-37.531-15.478-37.531-34.583V196.952c0-10.318,4.989-20.069,13.606-26.646L183.515,56.75
			c6.747-5.103,15.194-7.937,23.924-7.937h301.097C529.285,48.813,546.123,64.347,546.123,83.452z"/>
		
			<line fill="none" stroke="#FFFFFF" stroke-width="5" stroke-miterlimit="10" x1="20.806" y1="180.681" x2="387.043" y2="181.928"/>
		
			<line fill="none" stroke="#FFFFFF" stroke-width="5" stroke-miterlimit="10" x1="387.043" y1="518.117" x2="387.043" y2="181.928"/>
		
			<line fill="none" stroke="#FFFFFF" stroke-width="5" stroke-miterlimit="10" x1="534.558" y1="58.507" x2="387.043" y2="181.928"/>
	</g>
	
		<line fill="none" stroke="#FFFFFF" stroke-width="5" stroke-miterlimit="10" x1="103.408" y1="114.804" x2="463.521" y2="115.994"/>
</g>
</svg>
