<?xml version="1.0" encoding="utf-8"?>
<!-- Generator: Adobe Illustrator 16.0.3, SVG Export Plug-In . SVG Version: 6.00 Build 0)  -->
<!DOCTYPE svg PUBLIC "-//W3C//DTD SVG 1.1//EN" "http://www.w3.org/Graphics/SVG/1.1/DTD/svg11.dtd">
<svg version="1.1" id="Capa_2" xmlns="http://www.w3.org/2000/svg" xmlns:xlink="http://www.w3.org/1999/xlink" x="0px" y="0px"
	 width="566.93px" height="566.93px" viewBox="0 0 566.93 566.93" enable-background="new 0 0 566.93 566.93" xml:space="preserve">
<path fill="none" stroke="#FFFFFF" stroke-width="5" stroke-linecap="round" stroke-linejoin="round" stroke-miterlimit="10" d="
	M283.748,327.402l-122.513,122.57c1.757,5.839,2.665,12.019,2.665,18.425c0,36.113-29.253,65.367-65.367,65.367
	c-36.113,0-65.423-29.254-65.423-65.367s29.31-65.424,65.423-65.424c6.406,0,12.586,0.907,18.425,2.665l122.514-122.514
	L283.748,327.402z"/>
<path fill="none" stroke="#FFFFFF" stroke-width="5" stroke-linecap="round" stroke-linejoin="round" stroke-miterlimit="10" d="
	M533.821,146.552c0,62.532-50.797,113.386-113.386,113.386c-19.956,0-38.665-5.216-54.936-14.287l-38.098,38.154l-44.278-44.277
	l38.098-38.154c-9.015-16.271-14.174-34.979-14.174-54.822c0-62.703,50.74-113.386,113.387-113.386
	c20.068,0,38.947,5.159,55.275,14.343l-76.082,76.082c-8.051,6.18-13.21,15.931-13.21,26.873c0,18.822,15.194,34.016,34.016,34.016
	c10.772,0,20.354-4.989,26.59-12.756l75.175-75.231C529.683,111.572,533.821,128.523,533.821,146.552z"/>
<path fill="none" stroke="#FFFFFF" stroke-width="5" stroke-linecap="round" stroke-linejoin="round" stroke-miterlimit="10" d="
	M520.951,494.703l-26.248,26.249c-16.611,16.554-42.747,17.291-58.395,1.644l-96.661-96.661
	c-12.813-12.813-14.74-32.655-5.896-48.529l-94.281-94.28l-59.301-59.301l-69.959-3.402L33.052,101.141l68.088-68.088
	l119.282,77.216l3.401,69.959l153.525,153.525c15.931-8.844,35.773-6.974,48.586,5.84l96.661,96.661
	C538.3,451.957,537.506,478.092,520.951,494.703z"/>
</svg>
