<svg id="Capa_2" data-name="Capa 2" xmlns="http://www.w3.org/2000/svg" viewBox="0 0 97.08 91.14"><defs><style>.cls-1{fill:none;stroke:#000;stroke-linecap:round;stroke-linejoin:round;stroke-width:5px;}</style></defs><polygon class="cls-1" points="48.54 50.57 25.52 39.93 25.52 12.51 48.54 23.15 48.54 50.57"/><polygon class="cls-1" points="48.54 50.57 71.56 39.93 71.56 12.51 48.54 23.15 48.54 50.57"/><polygon class="cls-1" points="71.56 12.51 48.54 22.52 25.52 12.51 48.54 2.5 71.56 12.51"/><polygon class="cls-1" points="25.52 88.64 2.5 78 2.5 50.58 25.52 61.22 25.52 88.64"/><polygon class="cls-1" points="25.52 88.64 48.54 78 48.54 50.58 25.52 61.22 25.52 88.64"/><polygon class="cls-1" points="48.54 50.58 25.52 60.59 2.5 50.58 25.52 40.57 48.54 50.58"/><polygon class="cls-1" points="71.56 88.64 48.54 78 48.54 50.58 71.56 61.22 71.56 88.64"/><polygon class="cls-1" points="71.56 88.64 94.58 78 94.58 50.58 71.56 61.22 71.56 88.64"/><polygon class="cls-1" points="94.58 50.58 71.56 60.59 48.54 50.58 71.56 40.57 94.58 50.58"/></svg>